<svg viewBox="0 0 100 100" xmlns="http://www.w3.org/2000/svg">
  <defs>
    <linearGradient id="logoGradient" x1="0%" y1="0%" x2="100%" y2="100%">
      <stop offset="0%" style="stop-color:#667eea;stop-opacity:1" />
      <stop offset="100%" style="stop-color:#764ba2;stop-opacity:1" />
    </linearGradient>
  </defs>
  
  <!-- Cloud shape -->
  <path d="M75 35c-5-15-20-25-35-25-15 0-28 8-33 20-15 2-25 15-25 30 0 17 13 30 30 30h55c14 0 25-11 25-25 0-13-10-24-23-25z" 
        fill="url(#logoGradient)" opacity="0.9"/>
  
  <!-- Upload arrow -->
  <path d="M50 45v20M42 53l8-8 8 8" 
        stroke="white" stroke-width="3" stroke-linecap="round" stroke-linejoin="round" fill="none"/>
  
  <!-- Data dots -->
  <circle cx="30" cy="40" r="2" fill="white" opacity="0.7"/>
  <circle cx="70" cy="45" r="2" fill="white" opacity="0.7"/>
  <circle cx="60" cy="30" r="1.5" fill="white" opacity="0.5"/>
  <circle cx="35" cy="55" r="1.5" fill="white" opacity="0.5"/>
</svg>